<?xml version="1.0" encoding="UTF-8" standalone="no"?>
<!DOCTYPE svg PUBLIC "-//W3C//DTD SVG 1.0//EN" "http://www.w3.org/TR/2001/PR-SVG-20010719/DTD/svg10.dtd">
<svg width="59cm" height="34cm" viewBox="-103 -120 1178 665" xmlns="http://www.w3.org/2000/svg" xmlns:xlink="http://www.w3.org/1999/xlink">
  <g>
    <rect style="fill: #ffffff" x="420" y="118.5" width="120" height="75"/>
    <rect style="fill: none; fill-opacity:0; stroke-width: 2; stroke: #000000" x="420" y="118.5" width="120" height="75"/>
    <text font-size="12.7998" style="fill: #000000;text-anchor:middle;font-family:sans-serif;font-style:normal;font-weight:normal" x="480" y="151.881">
      <tspan x="480" y="151.881">Monter</tspan>
      <tspan x="480" y="167.881">ex. ABB@2012</tspan>
    </text>
  </g>
  <g>
    <rect style="fill: #ffffff" x="420" y="247" width="120" height="75"/>
    <rect style="fill: none; fill-opacity:0; stroke-width: 2; stroke: #000000" x="420" y="247" width="120" height="75"/>
    <text font-size="12.7998" style="fill: #000000;text-anchor:middle;font-family:sans-serif;font-style:normal;font-weight:normal" x="480" y="288.381">
      <tspan x="480" y="288.381">Företag</tspan>
    </text>
  </g>
  <g>
    <line style="fill: none; fill-opacity:0; stroke-width: 2; stroke: #000000" x1="480" y1="245.999" x2="480" y2="194.501"/>
    <line style="fill: none; fill-opacity:0; stroke-width: 2; stroke: #000000" x1="480" y1="214.501" x2="490" y2="194.501"/>
    <line style="fill: none; fill-opacity:0; stroke-width: 2; stroke: #000000" x1="480" y1="214.501" x2="470" y2="194.501"/>
  </g>
  <g>
    <rect style="fill: #ffffff" x="399.04" y="-20" width="161.92" height="75"/>
    <rect style="fill: none; fill-opacity:0; stroke-width: 2; stroke: #000000" x="399.04" y="-20" width="161.92" height="75"/>
    <text font-size="12.7998" style="fill: #000000;text-anchor:middle;font-family:sans-serif;font-style:normal;font-weight:normal" x="480" y="13.3812">
      <tspan x="480" y="13.3812">Mässa</tspan>
      <tspan x="480" y="29.3812">ex. Charm 2012</tspan>
    </text>
  </g>
  <g>
    <line style="fill: none; fill-opacity:0; stroke-width: 2; stroke: #000000" x1="480" y1="55.9966" x2="480" y2="117.503"/>
    <line style="fill: none; fill-opacity:0; stroke-width: 2; stroke: #000000" x1="480" y1="97.5034" x2="470" y2="117.503"/>
    <line style="fill: none; fill-opacity:0; stroke-width: 2; stroke: #000000" x1="480" y1="97.5034" x2="490" y2="117.503"/>
  </g>
  <g>
    <rect style="fill: #ffffff" x="634.077" y="-20" width="173.766" height="75"/>
    <rect style="fill: none; fill-opacity:0; stroke-width: 2; stroke: #000000" x="634.077" y="-20" width="173.766" height="75"/>
    <text font-size="12.7998" style="fill: #000000;text-anchor:middle;font-family:sans-serif;font-style:normal;font-weight:normal" x="720.96" y="13.3812">
      <tspan x="720.96" y="13.3812">Charmk</tspan>
      <tspan x="720.96" y="29.3812">(medlem)</tspan>
    </text>
  </g>
  <g>
    <line style="fill: none; fill-opacity:0; stroke-width: 2; stroke: #000000" x1="561.962" y1="17.5" x2="633.13" y2="17.5"/>
    <line style="fill: none; fill-opacity:0; stroke-width: 2; stroke: #000000" x1="613.13" y1="17.5" x2="633.13" y2="27.5"/>
    <line style="fill: none; fill-opacity:0; stroke-width: 2; stroke: #000000" x1="613.13" y1="17.5" x2="633.13" y2="7.5"/>
  </g>
  <g>
    <rect style="fill: #ffffff" x="900" y="118.5" width="173.766" height="75"/>
    <rect style="fill: none; fill-opacity:0; stroke-width: 2; stroke: #000000" x="900" y="118.5" width="173.766" height="75"/>
    <text font-size="12.7998" style="fill: #000000;text-anchor:middle;font-family:sans-serif;font-style:normal;font-weight:normal" x="986.883" y="159.881">
      <tspan x="986.883" y="159.881">Användare</tspan>
    </text>
  </g>
  <g>
    <path style="fill: none; fill-opacity:0; stroke-width: 2; stroke: #000000" d="M 975.715,117.508 A 189.247,189.247 0 0 0 808.826,0.121673"/>
    <line style="fill: none; fill-opacity:0; stroke-width: 2; stroke: #000000" x1="828.807" y1="0.99436" x2="809.263" y2="-9.8688"/>
    <line style="fill: none; fill-opacity:0; stroke-width: 2; stroke: #000000" x1="828.807" y1="0.99436" x2="808.39" y2="10.1121"/>
  </g>
  <g>
    <rect style="fill: #ffffff" x="640" y="118.5" width="173.766" height="75"/>
    <rect style="fill: none; fill-opacity:0; stroke-width: 2; stroke: #000000" x="640" y="118.5" width="173.766" height="75"/>
    <text font-size="12.7998" style="fill: #000000;text-anchor:middle;font-family:sans-serif;font-style:normal;font-weight:normal" x="726.883" y="159.881">
      <tspan x="726.883" y="159.881">Företagsvärd</tspan>
    </text>
  </g>
  <g>
    <line style="fill: none; fill-opacity:0; stroke-width: 2; stroke: #000000" x1="541.005" y1="156" x2="638.996" y2="156"/>
    <line style="fill: none; fill-opacity:0; stroke-width: 2; stroke: #000000" x1="618.996" y1="156" x2="638.996" y2="166"/>
    <line style="fill: none; fill-opacity:0; stroke-width: 2; stroke: #000000" x1="618.996" y1="156" x2="638.996" y2="146"/>
  </g>
  <g>
    <line style="fill: none; fill-opacity:0; stroke-width: 2; stroke: #000000" x1="899.015" y1="156" x2="814.75" y2="156"/>
    <line style="fill: none; fill-opacity:0; stroke-width: 2; stroke: #000000" x1="834.75" y1="156" x2="814.75" y2="146"/>
    <line style="fill: none; fill-opacity:0; stroke-width: 2; stroke: #000000" x1="834.75" y1="156" x2="814.75" y2="166"/>
  </g>
  <g>
    <rect style="fill: #ffffff" x="640" y="220" width="173.766" height="75"/>
    <rect style="fill: none; fill-opacity:0; stroke-width: 2; stroke: #000000" x="640" y="220" width="173.766" height="75"/>
    <text font-size="12.7998" style="fill: #000000;text-anchor:middle;font-family:sans-serif;font-style:normal;font-weight:normal" x="726.883" y="253.381">
      <tspan x="726.883" y="253.381">Kontaktperson</tspan>
      <tspan x="726.883" y="269.381">ex. HR-nisse</tspan>
    </text>
  </g>
  <g>
    <rect style="fill: #ffffff" x="682" y="339" width="80" height="75"/>
    <rect style="fill: none; fill-opacity:0; stroke-width: 2; stroke: #000000" x="682" y="339" width="80" height="75"/>
    <text font-size="12.7998" style="fill: #000000;text-anchor:middle;font-family:sans-serif;font-style:normal;font-weight:normal" x="722" y="380.381">
      <tspan x="722" y="380.381">Roll</tspan>
    </text>
  </g>
  <g>
    <line style="fill: none; fill-opacity:0; stroke-width: 2; stroke: #000000" x1="723.58" y1="337.998" x2="725.303" y2="296.002"/>
    <line style="fill: none; fill-opacity:0; stroke-width: 2; stroke: #000000" x1="724.483" y1="315.985" x2="735.295" y2="296.412"/>
    <line style="fill: none; fill-opacity:0; stroke-width: 2; stroke: #000000" x1="724.483" y1="315.985" x2="715.311" y2="295.592"/>
  </g>
  <g>
    <path style="fill: none; fill-opacity:0; stroke-width: 2; stroke: #000000" d="M 512.326,194.504 A 241.035,241.035 0 0 0 647.72,260.012"/>
    <line style="fill: none; fill-opacity:0; stroke-width: 2; stroke: #000000" x1="627.897" y1="257.353" x2="646.391" y2="269.923"/>
    <line style="fill: none; fill-opacity:0; stroke-width: 2; stroke: #000000" x1="627.897" y1="257.353" x2="649.049" y2="250.101"/>
  </g>
  <g>
    <path style="fill: none; fill-opacity:0; stroke-width: 2; stroke: #000000" d="M 814.755,266.642 A 223.338,223.338 0 0 0 958.795,194.481"/>
    <line style="fill: none; fill-opacity:0; stroke-width: 2; stroke: #000000" x1="834.664" y1="264.736" x2="813.802" y2="256.687"/>
    <line style="fill: none; fill-opacity:0; stroke-width: 2; stroke: #000000" x1="834.664" y1="264.736" x2="815.708" y2="276.596"/>
  </g>
  <g>
    <path style="fill: #ffffff" d="M 211.878 -96.1146 C 201.033,-96.3923 180,-90.5598 182.958,-78.0617 C 185.915,-65.5635 200.047,-62.7863 205.962,-66.3967 C 211.878,-70.0073 196.761,-48.8994 225.681,-43.3447 C 254.601,-37.7899 269.39,-46.6775 265.117,-53.0655 C 260.845,-59.4534 290.422,-38.0677 304.225,-50.2881 C 318.028,-62.5085 290.094,-74.1734 296.009,-72.5069 C 301.925,-70.8405 320,-73.0624 314.084,-93.8927 C 308.169,-114.723 254.929,-98.6142 260.845,-101.669 C 266.76,-104.724 251.972,-120 233.568,-116.945 C 215.164,-113.89 213.859,-108.346 211.887,-96.1254 L 211.878,-96.1146z"/>
    <path style="fill: none; fill-opacity:0; stroke-width: 2; stroke: #000000" d="M 211.878 -96.1146 C 201.033,-96.3923 180,-90.5598 182.958,-78.0617 C 185.915,-65.5635 200.047,-62.7863 205.962,-66.3967 C 211.878,-70.0073 196.761,-48.8994 225.681,-43.3447 C 254.601,-37.7899 269.39,-46.6775 265.117,-53.0655 C 260.845,-59.4534 290.422,-38.0677 304.225,-50.2881 C 318.028,-62.5085 290.094,-74.1734 296.009,-72.5069 C 301.925,-70.8405 320,-73.0624 314.084,-93.8927 C 308.169,-114.723 254.929,-98.6142 260.845,-101.669 C 266.76,-104.724 251.972,-120 233.568,-116.945 C 215.164,-113.89 213.859,-108.346 211.887,-96.1254 L 211.878,-96.1146"/>
    <text font-size="12.7998" style="fill: #000000;text-anchor:middle;font-family:sans-serif;font-style:normal;font-weight:normal" x="253.753" y="-73.3833">
      <tspan x="253.753" y="-73.3833">Logistik</tspan>
    </text>
  </g>
  <line style="fill: none; fill-opacity:0; stroke-width: 2; stroke: #000000" x1="281.157" y1="-47.4275" x2="442.381" y2="117.514"/>
  <g>
    <rect style="fill: #ffffff" x="233" y="118" width="140" height="75"/>
    <rect style="fill: none; fill-opacity:0; stroke-width: 2; stroke: #000000" x="233" y="118" width="140" height="75"/>
    <text font-size="12.7998" style="fill: #000000;text-anchor:middle;font-family:sans-serif;font-style:normal;font-weight:normal" x="303" y="159.381">
      <tspan x="303" y="159.381">CHARMsamtal</tspan>
    </text>
  </g>
  <line style="fill: none; fill-opacity:0; stroke-width: 2; stroke: #000000" x1="374.004" y1="155.701" x2="419.07" y2="155.828"/>
  <g>
    <rect style="fill: #ffffff" x="40" y="120" width="140" height="75"/>
    <rect style="fill: none; fill-opacity:0; stroke-width: 2; stroke: #000000" x="40" y="120" width="140" height="75"/>
    <text font-size="12.7998" style="fill: #000000;text-anchor:middle;font-family:sans-serif;font-style:normal;font-weight:normal" x="110" y="161.381">
      <tspan x="110" y="161.381">Ansökan</tspan>
    </text>
  </g>
  <g>
    <line style="fill: none; fill-opacity:0; stroke-width: 2; stroke: #000000" x1="180.985" y1="156.764" x2="232.015" y2="156.236"/>
    <line style="fill: none; fill-opacity:0; stroke-width: 2; stroke: #000000" x1="212.016" y1="156.443" x2="232.119" y2="166.235"/>
    <line style="fill: none; fill-opacity:0; stroke-width: 2; stroke: #000000" x1="212.016" y1="156.443" x2="231.911" y2="146.236"/>
  </g>
  <g>
    <rect style="fill: #ffffff" x="40" y="240" width="140" height="75"/>
    <rect style="fill: none; fill-opacity:0; stroke-width: 2; stroke: #000000" x="40" y="240" width="140" height="75"/>
    <text font-size="12.7998" style="fill: #000000;text-anchor:middle;font-family:sans-serif;font-style:normal;font-weight:normal" x="110" y="281.381">
      <tspan x="110" y="281.381">Tid</tspan>
    </text>
  </g>
  <g>
    <rect style="fill: #ffffff" x="40" y="360" width="140" height="75"/>
    <rect style="fill: none; fill-opacity:0; stroke-width: 2; stroke: #000000" x="40" y="360" width="140" height="75"/>
    <text font-size="12.7998" style="fill: #000000;text-anchor:middle;font-family:sans-serif;font-style:normal;font-weight:normal" x="110" y="401.381">
      <tspan x="110" y="401.381">Lokal</tspan>
    </text>
  </g>
  <g>
    <line style="fill: none; fill-opacity:0; stroke-width: 2; stroke: #000000" x1="110" y1="358.997" x2="110" y2="316.003"/>
    <line style="fill: none; fill-opacity:0; stroke-width: 2; stroke: #000000" x1="110" y1="336.003" x2="120" y2="316.003"/>
    <line style="fill: none; fill-opacity:0; stroke-width: 2; stroke: #000000" x1="110" y1="336.003" x2="100" y2="316.003"/>
  </g>
  <line style="fill: none; fill-opacity:0; stroke-width: 2; stroke: #000000" x1="110" y1="196.003" x2="110" y2="238.997"/>
  <g>
    <rect style="fill: #ffffff" x="-40" y="0" width="140" height="75"/>
    <rect style="fill: none; fill-opacity:0; stroke-width: 2; stroke: #000000" x="-40" y="0" width="140" height="75"/>
    <text font-size="12.7998" style="fill: #000000;text-anchor:middle;font-family:sans-serif;font-style:normal;font-weight:normal" x="30" y="41.3813">
      <tspan x="30" y="41.3813">CV</tspan>
    </text>
  </g>
  <g>
    <rect style="fill: #ffffff" x="120" y="0" width="140" height="75"/>
    <rect style="fill: none; fill-opacity:0; stroke-width: 2; stroke: #000000" x="120" y="0" width="140" height="75"/>
    <text font-size="12.7998" style="fill: #000000;text-anchor:middle;font-family:sans-serif;font-style:normal;font-weight:normal" x="190" y="41.3813">
      <tspan x="190" y="41.3813">Personligt brev</tspan>
    </text>
  </g>
  <line style="fill: none; fill-opacity:0; stroke-width: 2; stroke: #000000" x1="55.6689" y1="76.0034" x2="84.3311" y2="118.997"/>
  <line style="fill: none; fill-opacity:0; stroke-width: 2; stroke: #000000" x1="164.331" y1="76.0034" x2="135.669" y2="118.997"/>
  <g>
    <rect style="fill: #ffffff" x="220" y="220" width="101.769" height="60"/>
    <rect style="fill: none; fill-opacity:0; stroke-width: 2; stroke-dasharray: 20; stroke: #000000" x="220" y="220" width="101.769" height="60"/>
    <text font-size="12.7998" style="fill: #000000;text-anchor:middle;font-family:sans-serif;font-style:normal;font-weight:normal" x="270.884" y="253.881">
      <tspan x="270.884" y="253.881">Utcheckning</tspan>
    </text>
  </g>
  <g>
    <rect style="fill: #ffffff" x="360" y="400" width="112.3" height="60"/>
    <rect style="fill: none; fill-opacity:0; stroke-width: 2; stroke-dasharray: 20; stroke: #000000" x="360" y="400" width="112.3" height="60"/>
    <text font-size="12.7998" style="fill: #000000;text-anchor:middle;font-family:sans-serif;font-style:normal;font-weight:normal" x="416.15" y="433.881">
      <tspan x="416.15" y="433.881">Ändringsfråga</tspan>
    </text>
  </g>
  <g>
    <rect style="fill: #ffffff" x="236" y="300" width="156.413" height="69"/>
    <rect style="fill: none; fill-opacity:0; stroke-width: 2; stroke: #000000" x="236" y="300" width="156.413" height="69"/>
    <text font-size="12.7998" style="fill: #000000;text-anchor:middle;font-family:sans-serif;font-style:normal;font-weight:normal" x="314.207" y="330.381">
      <tspan x="314.207" y="330.381">Beställning</tspan>
      <tspan x="314.207" y="346.381">ex. 3 stol ABB@2012</tspan>
    </text>
  </g>
  <line style="fill: none; fill-opacity:0; stroke-width: 2; stroke: #000000" x1="286.776" y1="280.996" x2="296.009" y2="299.006"/>
  <g>
    <rect style="fill: #ffffff" x="200" y="400" width="120" height="60"/>
    <rect style="fill: none; fill-opacity:0; stroke-width: 2; stroke: #000000" x="200" y="400" width="120" height="60"/>
    <text font-size="12.7998" style="fill: #000000;text-anchor:middle;font-family:sans-serif;font-style:normal;font-weight:normal" x="260" y="425.881">
      <tspan x="260" y="425.881">Artikel</tspan>
      <tspan x="260" y="441.881">ex. stol</tspan>
    </text>
  </g>
  <g>
    <line style="fill: none; fill-opacity:0; stroke-width: 2; stroke: #000000" x1="444.249" y1="194.491" x2="347.175" y2="299.005"/>
    <line style="fill: none; fill-opacity:0; stroke-width: 2; stroke: #000000" x1="360.786" y1="284.351" x2="339.848" y2="292.199"/>
    <line style="fill: none; fill-opacity:0; stroke-width: 2; stroke: #000000" x1="360.786" y1="284.351" x2="354.502" y2="305.81"/>
  </g>
  <g>
    <line style="fill: none; fill-opacity:0; stroke-width: 2; stroke: #000000" x1="277.588" y1="399.014" x2="294.058" y2="369.998"/>
    <line style="fill: none; fill-opacity:0; stroke-width: 2; stroke: #000000" x1="284.185" y1="387.391" x2="302.755" y2="374.934"/>
    <line style="fill: none; fill-opacity:0; stroke-width: 2; stroke: #000000" x1="284.185" y1="387.391" x2="285.361" y2="365.061"/>
  </g>
  <line style="fill: none; fill-opacity:0; stroke-width: 2; stroke-dasharray: 4; stroke: #000000" x1="383.073" y1="399.014" x2="352.099" y2="369.998"/>
  <g>
    <path style="fill: none; fill-opacity:0; stroke-width: 2; stroke: #000000" d="M 473.302 430 C 576.466,430 535.876,156 639.04,156"/>
    <line style="fill: none; fill-opacity:0; stroke-width: 2; stroke: #000000" x1="619.04" y1="156" x2="639.04" y2="166"/>
    <line style="fill: none; fill-opacity:0; stroke-width: 2; stroke: #000000" x1="619.04" y1="156" x2="639.04" y2="146"/>
  </g>
  <g>
    <path style="fill: none; fill-opacity:0; stroke-width: 2; stroke: #000000" d="M 993.863 194.503 C 1106.98,818.503 -590.958,471.819 39.0417,189.319"/>
    <line style="fill: none; fill-opacity:0; stroke-width: 2; stroke: #000000" x1="20.7925" y1="197.502" x2="43.1333" y2="198.443"/>
    <line style="fill: none; fill-opacity:0; stroke-width: 2; stroke: #000000" x1="20.7925" y1="197.502" x2="34.9501" y2="180.194"/>
  </g>
</svg>
